<svg width="856" height="248" viewBox="0 0 856 248" fill="none" xmlns="http://www.w3.org/2000/svg">
<path d="M333.301 177.45V129.25H387.101V113.45H333.301V84.25H390.401V68.25H314.201V177.35L333.301 177.45ZM420.701 86.35V68.35H402.801V86.45H420.701V86.35ZM420.701 177.45V96.45H402.801V177.45H420.701ZM458.801 177.45V68.35H440.901V177.45H458.801ZM515.301 179.45C536.101 179.45 548.401 166.25 552.001 153.25H534.401C531.201 160.95 524.001 164.55 514.501 164.55C504.301 164.55 493.701 157.15 492.501 142.15H552.901C554.601 115.05 538.901 94.75 514.101 94.75C491.201 94.75 474.301 112.05 474.301 136.45C474.301 159.75 489.301 179.45 515.301 179.45ZM534.701 128.95H492.501C494.201 113.75 505.601 108.65 514.001 108.65C524.601 108.65 534.301 116.35 534.701 128.95ZM604.001 179.45C621.301 179.45 638.001 168.75 641.601 149.75H624.101C621.701 160.55 613.101 164.55 604.201 164.55C593.701 164.55 583.401 156.25 583.401 137.05C583.401 117.95 593.301 109.65 604.601 109.65C614.401 109.65 621.801 115.65 623.401 124.25H641.001C637.801 106.35 622.501 94.75 604.701 94.75C580.501 94.75 564.901 113.15 564.901 137.25C564.901 161.35 580.501 179.45 604.001 179.45ZM692.001 179.45C711.701 179.45 731.901 166.55 731.901 137.15C731.901 107.95 711.701 94.65 692.001 94.65C672.301 94.65 652.101 107.85 652.101 137.15C652.101 166.45 672.301 179.45 692.001 179.45ZM692.001 164.85C680.601 164.85 670.601 155.95 670.601 137.15C670.601 118.45 680.501 109.25 692.001 109.25C703.401 109.25 713.401 118.45 713.401 137.15C713.401 155.95 703.401 164.85 692.001 164.85ZM765.801 86.35V68.35H747.901V86.45H765.801V86.35ZM765.801 177.45V96.45H747.901V177.45H765.801ZM803.901 177.45V134.35C803.901 119.75 808.901 109.25 822.701 109.25C836.601 109.25 838.101 120.05 838.101 130.95V177.45H856.001V126.55C856.001 107.25 848.001 94.65 828.401 94.65C817.001 94.65 808.501 99.35 803.901 107.75V96.45H786.001V177.45H803.901Z" fill="white"/>
<path d="M330.67 199.386C334.839 199.386 338.355 200.464 341.217 202.619C344.079 204.774 345.916 207.813 346.729 211.735H340.899C340.263 209.474 339.062 207.689 337.295 206.382C335.564 205.075 333.285 204.421 330.458 204.421C328.797 204.421 327.243 204.739 325.794 205.375C324.381 205.976 323.144 206.912 322.084 208.184C321.059 209.421 320.247 210.958 319.646 212.795C319.045 214.632 318.745 216.77 318.745 219.208C318.745 221.575 319.028 223.695 319.593 225.568C320.158 227.405 320.953 228.96 321.978 230.232C323.003 231.504 324.222 232.476 325.635 233.147C327.084 233.818 328.674 234.154 330.405 234.154C331.606 234.154 332.843 234.013 334.115 233.73C335.422 233.412 336.606 232.9 337.666 232.193C338.726 231.486 339.592 230.532 340.263 229.331C340.934 228.094 341.27 226.54 341.27 224.667V223.819H331.253V218.678H346.888V238.5H342.171L341.906 233.783C340.705 235.62 339.062 236.981 336.977 237.864C334.928 238.747 332.596 239.189 329.981 239.189C327.225 239.189 324.769 238.712 322.614 237.758C320.459 236.769 318.621 235.391 317.102 233.624C315.618 231.857 314.487 229.755 313.71 227.317C312.933 224.879 312.544 222.176 312.544 219.208C312.544 216.24 312.968 213.537 313.816 211.099C314.664 208.661 315.865 206.576 317.42 204.845C319.01 203.114 320.918 201.771 323.144 200.817C325.405 199.863 327.914 199.386 330.67 199.386Z" fill="white"/>
<path d="M364.675 219.261C364.675 221.664 364.975 223.801 365.576 225.674C366.212 227.511 367.06 229.066 368.12 230.338C369.215 231.575 370.487 232.529 371.936 233.2C373.384 233.836 374.957 234.154 376.653 234.154C378.313 234.154 379.868 233.836 381.317 233.2C382.766 232.529 384.02 231.575 385.08 230.338C386.175 229.066 387.023 227.511 387.624 225.674C388.26 223.801 388.578 221.664 388.578 219.261C388.578 216.858 388.26 214.738 387.624 212.901C387.023 211.028 386.175 209.474 385.08 208.237C384.02 206.965 382.766 206.011 381.317 205.375C379.868 204.739 378.313 204.421 376.653 204.421C374.957 204.421 373.384 204.739 371.936 205.375C370.487 206.011 369.215 206.965 368.12 208.237C367.06 209.474 366.212 211.028 365.576 212.901C364.975 214.738 364.675 216.858 364.675 219.261ZM394.779 219.261C394.779 222.194 394.355 224.879 393.507 227.317C392.659 229.755 391.44 231.857 389.85 233.624C388.295 235.391 386.405 236.769 384.179 237.758C381.953 238.712 379.444 239.189 376.653 239.189C373.861 239.189 371.335 238.712 369.074 237.758C366.848 236.769 364.94 235.391 363.35 233.624C361.795 231.857 360.594 229.755 359.746 227.317C358.898 224.879 358.474 222.194 358.474 219.261C358.474 216.328 358.898 213.643 359.746 211.205C360.594 208.767 361.795 206.682 363.35 204.951C364.94 203.184 366.848 201.824 369.074 200.87C371.335 199.881 373.861 199.386 376.653 199.386C379.444 199.386 381.953 199.881 384.179 200.87C386.405 201.824 388.295 203.184 389.85 204.951C391.44 206.682 392.659 208.767 393.507 211.205C394.355 213.643 394.779 216.328 394.779 219.261Z" fill="white"/>
<path d="M408.337 200.075L418.566 231.769L428.53 200.075H434.89L421.799 238.5H414.962L401.712 200.075H408.337Z" fill="white"/>
<path d="M444.732 200.075H471.338V205.216H450.774V216.187H470.172V221.275H450.774V233.359H471.338V238.5H444.732V200.075Z" fill="white"/>
<path d="M497.745 222.282C497.357 222.317 496.95 222.335 496.526 222.335C496.102 222.335 495.678 222.335 495.254 222.335H488.629V238.5H482.587V200.075H494.777C497.357 200.075 499.671 200.234 501.72 200.552C503.77 200.87 505.501 201.453 506.914 202.301C508.328 203.114 509.405 204.244 510.147 205.693C510.925 207.106 511.313 208.926 511.313 211.152C511.313 213.908 510.677 216.099 509.405 217.724C508.133 219.349 506.296 220.533 503.893 221.275L512.744 238.5H505.96L497.745 222.282ZM488.629 205.057V217.406H495.572C496.986 217.406 498.275 217.335 499.441 217.194C500.607 217.053 501.614 216.77 502.462 216.346C503.31 215.887 503.964 215.268 504.423 214.491C504.883 213.678 505.112 212.601 505.112 211.258C505.112 209.88 504.865 208.785 504.37 207.972C503.876 207.159 503.187 206.541 502.303 206.117C501.455 205.658 500.448 205.375 499.282 205.269C498.116 205.128 496.844 205.057 495.466 205.057H488.629Z" fill="white"/>
<path d="M546.755 238.5L529.795 206.7V238.5H523.859V200.075H532.286L549.246 231.822V200.075H555.182V238.5H546.755Z" fill="white"/>
<path d="M578.978 200.075H585.656L600.125 238.5H593.553L590.532 230.073H573.837L570.869 238.5H564.721L578.978 200.075ZM575.639 224.985H588.677L582.105 206.647L575.639 224.985Z" fill="white"/>
<path d="M632.559 238.5L615.599 206.7V238.5H609.663V200.075H618.09L635.05 231.822V200.075H640.986V238.5H632.559Z" fill="white"/>
<path d="M687.254 225.992C686.83 228.112 686.123 230.002 685.134 231.663C684.18 233.288 682.979 234.666 681.53 235.797C680.117 236.892 678.474 237.74 676.601 238.341C674.764 238.906 672.785 239.189 670.665 239.189C667.874 239.189 665.383 238.712 663.192 237.758C661.037 236.769 659.199 235.391 657.68 233.624C656.196 231.857 655.048 229.755 654.235 227.317C653.458 224.879 653.069 222.176 653.069 219.208C653.069 216.205 653.475 213.484 654.288 211.046C655.136 208.608 656.337 206.523 657.892 204.792C659.482 203.061 661.372 201.736 663.563 200.817C665.789 199.863 668.28 199.386 671.036 199.386C673.085 199.386 674.993 199.686 676.76 200.287C678.562 200.852 680.152 201.7 681.53 202.831C682.943 203.962 684.127 205.34 685.081 206.965C686.035 208.59 686.706 210.463 687.095 212.583H681.265C680.664 210.074 679.463 208.096 677.661 206.647C675.894 205.163 673.598 204.421 670.771 204.421C669.146 204.421 667.626 204.739 666.213 205.375C664.835 206.011 663.616 206.965 662.556 208.237C661.531 209.474 660.719 211.011 660.118 212.848C659.553 214.685 659.27 216.805 659.27 219.208C659.27 221.575 659.553 223.695 660.118 225.568C660.719 227.405 661.531 228.96 662.556 230.232C663.581 231.504 664.8 232.476 666.213 233.147C667.626 233.818 669.163 234.154 670.824 234.154C673.686 234.154 676.018 233.43 677.82 231.981C679.622 230.532 680.823 228.536 681.424 225.992H687.254Z" fill="white"/>
<path d="M698.521 200.075H725.127V205.216H704.563V216.187H723.961V221.275H704.563V233.359H725.127V238.5H698.521V200.075Z" fill="white"/>
<path fill-rule="evenodd" clip-rule="evenodd" d="M150.266 200.242C150.266 171.994 173.337 149.016 201.701 149.016C216.282 149.016 229.465 155.084 238.853 164.931C243.247 152.398 245.745 139.07 245.844 125.044C246.343 56.8087 191.114 1.90251 123.8 1.5047C55.588 1.10682 0.458289 56.2124 0.158682 123.453C-0.140925 191.489 55.1886 246.794 123.002 246.495C138.682 246.594 153.562 243.61 167.345 238.338C156.858 228.989 150.266 215.362 150.266 200.242ZM126.197 166.025C123.401 174.48 120.504 182.935 116.51 190.793C111.516 200.839 103.427 208 91.9411 210.288C85.1501 211.582 78.3583 210.985 72.6655 206.609C70.9678 205.315 69.0707 203.027 68.9706 201.137C68.8706 198.949 70.0688 196.065 71.6673 194.672C72.7655 193.777 76.161 194.473 77.6595 195.567C79.7567 197.06 81.055 199.646 82.6527 201.834C86.1482 206.707 91.2423 207.304 95.836 203.425C101.429 198.651 104.326 192.185 106.123 185.422C109.918 171.297 113.014 156.874 116.41 142.65C116.609 142.054 116.41 141.357 116.41 140.163C105.923 138.572 95.4366 136.98 84.5505 135.289C84.95 132.206 85.3494 129.521 85.7488 126.039C96.5356 127.531 107.322 129.023 118.607 130.614C120.105 124.447 121.503 118.38 123.102 111.815C111.616 110.025 100.431 108.334 88.7449 106.543C89.1451 103.36 89.5445 100.376 89.9439 97.193C101.729 98.8839 113.214 100.575 125.099 102.266C126.098 98.785 126.897 95.6018 127.795 92.4185C131.091 81.5764 134.087 70.6355 140.879 61.285C147.77 51.8357 156.559 45.6685 168.842 46.1659C174.336 46.3653 179.529 47.9565 183.424 52.3332C184.223 53.2284 184.622 53.4269 185.321 55.3171C186.121 57.6051 185.222 60.8872 183.824 62.28C181.626 64.3686 178.331 63.2741 176.134 61.1854C174.435 59.4945 173.038 57.4058 171.639 55.5156C168.144 50.8408 162.551 49.9455 158.456 54.1237C155.36 57.4058 152.264 61.285 150.965 65.4624C146.871 78.095 143.575 91.0258 139.68 104.554C151.065 106.245 161.652 107.837 172.737 109.428C171.839 112.611 171.04 115.396 170.141 118.579C159.355 117.087 148.868 115.595 138.182 114.103C136.884 120.568 135.686 126.437 134.287 133.101C145.573 134.792 156.858 136.384 168.643 138.174C167.744 141.258 166.945 144.242 165.946 147.424C154.661 145.833 143.675 144.242 132.389 142.551C130.392 150.508 128.694 158.366 126.197 166.025Z" fill="#0090FF"/>
<path d="M247.142 200.243C247.142 175.276 226.768 154.984 201.701 154.984C176.632 154.984 156.259 175.276 156.259 200.243C156.259 224.811 175.834 244.705 200.302 245.5H247.142V200.243Z" fill="white"/>
<path d="M180.594 197.45V188.006H224.522V197.45H180.594ZM180.594 215.552V206.195H224.522V215.552H180.594Z" fill="black"/>
<path fill-rule="evenodd" clip-rule="evenodd" d="M126.098 166.025C123.301 174.48 120.405 182.935 116.41 190.793C111.416 200.839 103.327 208 91.841 210.288C85.05 211.582 78.259 210.985 72.5662 206.609C70.8685 205.315 68.9706 203.027 68.8706 201.137C68.7705 198.949 69.9696 196.065 71.5673 194.672C72.6655 193.777 76.0618 194.473 77.5594 195.567C79.6566 197.06 80.9549 199.646 82.5534 201.834C86.049 206.707 91.1422 207.305 95.736 203.425C101.33 198.651 104.226 192.185 106.023 185.422C109.818 171.297 112.914 156.874 116.31 142.65C116.51 142.054 116.31 141.357 116.31 140.163C105.823 138.572 95.3366 136.98 84.4505 135.289C84.8499 132.206 85.2501 129.521 85.6496 126.039C96.4356 127.531 107.222 129.023 118.507 130.614C120.006 124.447 121.403 118.38 123.002 111.815C111.516 110.025 100.331 108.334 88.6456 106.543C89.0451 103.36 89.4445 100.376 89.8439 97.193C101.629 98.8839 113.114 100.575 124.999 102.266C125.998 98.785 126.797 95.6018 127.695 92.4185C130.991 81.5765 133.988 70.6355 140.779 61.2851C147.67 51.8357 156.459 45.6685 168.743 46.166C174.236 46.3653 179.429 47.9565 183.324 52.3332C184.123 53.2285 184.522 53.427 185.222 55.3171C186.021 57.6051 185.122 60.8873 183.724 62.28C181.526 64.3687 178.231 63.2749 176.034 61.1854C174.336 59.4945 172.937 57.4058 171.539 55.5156C168.044 50.8408 162.451 49.9455 158.356 54.1237C155.26 57.4058 152.164 61.2851 150.866 65.4624C146.771 78.095 143.475 91.0258 139.58 104.554C150.965 106.245 161.552 107.837 172.638 109.428C171.739 112.611 170.94 115.396 170.042 118.579C159.255 117.087 148.769 115.595 138.082 114.103C136.784 120.568 135.585 126.437 134.187 133.101C145.473 134.792 156.758 136.384 168.543 138.174C167.644 141.258 166.845 144.242 165.846 147.424C154.561 145.833 143.575 144.242 132.289 142.551C130.392 150.508 128.694 158.366 126.098 166.025Z" fill="white"/>
</svg>
